<svg xmlns="http://www.w3.org/2000/svg" aria-hidden="true" style="width:0;height:0;position:absolute;overflow:hidden"><defs><symbol id="arrow" viewBox="0 0 84 32"><path d="M81.949 17.191a2 2 0 0 0 0-2.828L69.221 1.635a2 2 0 0 0-2.829 2.828l11.314 11.314-11.314 11.314a2 2 0 0 0 2.829 2.829l12.728-12.728zm-81.884.586h80.469v-4H.065v4z"/></symbol><symbol id="big-arrow" viewBox="0 0 69 32"><path stroke="currentColor" d="M68.081 17.414a2 2 0 0 0 0-2.829L55.353 1.857a2 2 0 1 0-2.828 2.828l11.314 11.314-11.314 11.314a2 2 0 1 0 2.828 2.828l12.728-12.728zM0 18h66.667v-4H0v4z"/></symbol></defs></svg>